<?xml version="1.0" encoding="UTF-8"?>
<svg viewBox="0 0 919 503" version="1.1" xmlns="http://www.w3.org/2000/svg" xmlns:xlink="http://www.w3.org/1999/xlink">
    <title>logo-symbol</title>
    <g id="Layout" stroke="none" stroke-width="1" fill="none" fill-rule="evenodd">
        <g id="Home" transform="translate(-909.000000, -1121.000000)" fill="currentColor" fill-rule="nonzero">
            <g id="Splash" transform="translate(49.000000, 205.000000)">
                <g id="logo-symbol" transform="translate(1319.500000, 1167.500000) rotate(-180.000000) translate(-1319.500000, -1167.500000) translate(860.000000, 916.000000)">
                    <path d="M913.848883,337.812026 C913.83607,337.812026 913.83607,337.824835 913.83607,337.824835 L913.83607,337.812026 L822.768963,337.812026 L822.768963,337.812026 L822.75615,337.812026 L822.743334,337.812026 L822.743334,337.824835 C820.424052,337.824835 818.540434,339.387532 817.89975,341.488206 C817.886933,341.539442 817.784425,341.603487 817.771612,341.641914 C813.030537,361.04753 804.099371,377.097193 790.606525,390.316068 C773.50021,406.186404 747.462732,418.457417 704.677718,414.512247 C650.962603,409.567978 627.436615,378.570226 599.502706,341.68034 C572.491382,306.007308 538.86818,268.874052 473.197867,268.874052 C407.476298,268.874052 373.417429,313.410904 346.047323,349.212025 C317.805884,386.140337 293.985179,421.57 222.061768,420.814269 C142.091341,419.994493 98.0249581,372.626856 98.0249581,285.756298 L98.0249581,251.658772 L98.0249581,251.517873 L98.0249581,251.492255 L98.0249581,251.351356 L98.0249581,217.25383 C98.0249581,130.383272 142.091341,83.0156342 222.061768,82.18305 C293.985179,81.4401285 317.805884,116.86979 346.047323,153.798103 C373.417429,189.586415 407.476298,234.123267 473.197867,234.123267 C538.86818,234.123267 572.491382,197.00282 599.502706,161.342597 C627.436615,124.439902 650.962603,93.4421505 704.677718,88.4978811 C747.462732,84.5527127 773.50021,96.8237235 790.606525,112.69406 C804.099371,125.912935 813.030537,141.949789 817.771612,161.368215 C817.784425,161.406642 817.886933,161.470686 817.89975,161.521923 C818.540434,163.622597 820.424052,165.185293 822.743334,165.185293 L822.743334,165.198102 L822.75615,165.198102 L822.768963,165.198102 L822.768963,165.198102 L913.83607,165.198102 L913.83607,165.185293 C913.83607,165.185293 913.83607,165.198102 913.848883,165.198102 C916.693531,165.198102 919,162.892484 919,160.048889 C919,159.818327 918.910304,159.613383 918.871862,159.408439 C918.871862,159.357203 918.935933,159.28035 918.935933,159.229114 C912.465002,117.407767 893.590394,81.209567 862.388986,51.5823774 C825.818628,16.8187835 778.023451,-3.45784468 706.63822,0.48732366 C609.279573,5.25226723 565.866688,62.2394555 533.909272,104.432262 C507.82054,138.88844 495.826896,151.915181 473.197867,151.915181 C450.29975,151.915181 438.062647,138.734732 411.41011,103.868667 C377.902231,60.0363094 332.003486,0.013391098 226.956609,0.013391098 L220.870092,0.0518180624 C86.9539042,0.974065209 0.422852762,98.4120378 -2.27373675e-13,248.994502 L-2.27373675e-13,251.338547 L-2.27373675e-13,251.466637 L-2.27373675e-13,251.492255 L-2.27373675e-13,251.505064 L-2.27373675e-13,251.517873 L-2.27373675e-13,251.530682 L-2.27373675e-13,251.671581 L-2.27373675e-13,254.015626 C0.422852762,404.610897 86.9539042,502.036064 220.870092,502.958311 L226.956609,503 C332.003486,503 377.902231,442.973819 411.41011,399.128651 C438.062647,364.262587 450.29975,351.094947 473.197867,351.094947 C495.826896,351.094947 507.82054,364.121688 533.909272,398.577866 C565.866688,440.770672 609.279573,497.757862 706.63822,502.509997 C778.023451,506.467974 825.818628,486.178536 862.388986,451.414941 C893.590394,421.80056 912.465002,385.60236 918.935933,343.781015 C918.935933,343.729778 918.871862,343.652925 918.871862,343.601689 C918.910304,343.396745 919,343.191801 919,342.961239 C919,340.117644 916.693531,337.812026 913.848883,337.812026" id="Fill-16"></path>
                </g>
            </g>
        </g>
    </g>
</svg>
