<?xml version="1.0" encoding="utf-8"?><svg xmlns="http://www.w3.org/2000/svg" xmlns:xlink="http://www.w3.org/1999/xlink" xmlns:v="https://vecta.io/nano"><style><![CDATA[.B{fill-rule:nonzero}.C{fill:#c3c4c7}.D{fill:#383c45}]]></style><defs><path id="A" d="M.425.408h4.09V8.7H.425z"/><path id="B" d="M.394.6h15.635v31.06H.394z"/></defs><g transform="translate(4 10)" fill="none" fill-rule="evenodd"><path d="M166.133 14.89c1.496.022 3.017.28 4.02-1.137.644-.898.63-2.48-.04-3.363-1.02-1.354-2.512-1.087-3.98-1.067v5.568zm-1.262-2.813l.001-2.974c.004-.718.18-.9.912-.898l2.922.113c1.92.257 3.27 1.954 3.178 3.86-.1 2.096-1.46 3.59-3.483 3.737-.927.07-1.862.03-2.793.044-.52.008-.74-.244-.738-.718v-3.164zm29 .968c-.795 0-1.37.05-1.926-.024-.242-.03-.584-.28-.64-.487-.106-.4.254-.563.63-.57h2.318c.458.012.702.27.707.7l-.013 1.68a1.16 1.16 0 0 1-.312.676c-1.077 1.07-3.408 1.4-4.975.736-1.546-.655-2.412-2.172-2.3-4.052.088-1.606 1.2-2.992 2.82-3.444 1.376-.386 2.697-.272 3.866.598.32.24.622.585.25.907-.17.147-.722.12-.943-.042-1.246-.874-2.94-.616-3.734.068-.985.85-1.315 2.336-.76 3.632.696 1.628 3.26 2.28 4.64 1.1.308-.263.247-.916.382-1.495m30.04-.092h2.802l-1.388-3.092-1.407 3.092m5.255 2.673c-.118.123-.263.392-.394.387-.254-.01-.598-.112-.73-.29-.267-.36-.38-.828-.63-1.207-.128-.193-.4-.403-.633-.42-.975-.045-1.952-.045-2.927 0-.22.01-.496.22-.63.42-.242.36-.398.77-.585 1.16-.17.358-.502.516-.817.32-.18-.113-.316-.543-.238-.73l3.175-6.768c.08-.168.396-.36.572-.33.248.056.46.208.585.42l3.09 6.52c.063.135.088.285.158.513m-15.802-6.54c-.74 0-1.388-.015-2.047.006-.38.012-.518-.12-.516-.488.002-.34.146-.456.486-.455l5.3.024c.16.003.442.3.438.453.002.15-.274.42-.446.44-.67.05-1.35.022-2.083.022v6.856c-.947.36-1.15.238-1.15-.622V9.075" class="B C"/><g transform="translate(235.027 8.061)"><mask id="C" fill="#fff"><use xlink:href="#A"/></mask><path d="M1.5 7.722l2.46-.005c.35-.008.55.065.545.504-.006.41-.202.47-.52.466-.994-.01-1.976-.018-2.964.003-.475.01-.612-.205-.608-.677V1C.423.564.55.407.966.408s.55.163.548.586L1.5 7.722z" mask="url(#C)" class="B C"/></g><g class="B"><path d="M180.144 12.107l.002 3.23c.002.41-.065.775-.604.784-.582.01-.642-.366-.64-.8V8.853c-.001-.414.065-.777.6-.786.577-.01.65.37.646.81l-.003 3.23m23.31-.001v3.23c.001.403-.063.775-.606.785-.59.012-.646-.375-.637-.8V8.854c-.002-.415.065-.777.594-.793.58-.01.655.366.646.81l-.003 3.23" class="C"/><path d="M45.143 23.12H40.65c-.11.002-.208.073-.24.176-.24.94-.682 1.71-1.348 2.344-.845.762-2.13 1.35-4.245 1.168-2.653-.237-3.816-1.725-5.195-3.496-1.334-1.712-2.995-3.494-6.24-3.494s-4.93 2.138-6.28 3.856c-1.395 1.772-2.572 3.474-6.125 3.443-3.95-.04-6.127-2.313-6.127-6.482v-3.288c0-4.17 2.177-6.443 6.127-6.483 3.553-.036 4.73 1.665 6.125 3.443 1.352 1.718 3.034 3.855 6.28 3.855s4.906-1.782 6.24-3.493c1.38-1.77 2.542-3.258 5.195-3.496 2.114-.19 3.4.4 4.245 1.168.667.634 1.108 1.404 1.342 2.336.038.108.13.183.246.183h4.494c.068 0 .133-.025.18-.072s.075-.11.075-.175c0-.01-.004-.02-.006-.03-.296-1.983-1.28-3.81-2.8-5.175-1.807-1.67-4.168-2.642-7.694-2.46-4.81.23-6.954 2.963-8.533 4.99-1.29 1.66-1.88 2.28-3 2.28-1.13 0-1.736-.633-3.052-2.305-1.655-2.104-3.923-4.985-9.112-4.985l-.3.002C4.295 6.954.02 11.63 0 18.857v.24c.02 7.227 4.295 11.904 10.91 11.95l.3.002c5.19 0 7.456-2.88 9.112-4.98 1.317-1.673 1.92-2.305 3.052-2.305 1.118 0 1.7.625 3 2.28 1.58 2.025 3.723 4.76 8.533 4.988 3.526.184 5.887-.784 7.694-2.46 1.54-1.42 2.474-3.16 2.793-5.166-.001-.018.003-.028.003-.04 0-.136-.114-.247-.254-.247M62.705 19c0 7.454 4.245 12.085 11.077 12.085S84.86 26.454 84.86 19 80.614 6.916 73.782 6.916 62.705 11.545 62.705 19h0zm17.277 1.586c0 4.21-2.203 6.527-6.2 6.527s-6.2-2.318-6.2-6.527v-3.172c0-4.21 2.203-6.527 6.2-6.527s6.2 2.318 6.2 6.527v3.172zM132.12 7.16c0-.138-.116-.25-.257-.25l-4.136.001c-.144-.001-.253.11-.253.25l.001 16.13c0 2.583-2.64 3.74-5.254 3.74-3.353 0-4.983-1.8-4.983-5.498l-.001-14.372c0-.138-.114-.25-.256-.25l-4.14.001c-.14.002-.253.11-.254.248V22.13c0 5.524 3.294 8.954 8.596 8.954 3.914 0 5.996-2.302 7.465-4.042l-1.214 3.8c-.006.018-.013.037-.013.058a.18.18 0 0 0 .19.18h4.264c.14 0 .256-.11.256-.248l-.001-23.68" class="D"/></g><g transform="translate(45.602)"><mask id="D" fill="#fff"><use xlink:href="#B"/></mask><path d="M16.028 7.107c0-.142-.115-.256-.255-.256H9.628V.86c0-.154-.113-.268-.253-.27V.6H5.392c-.14.002-.253.115-.254.255v4.403c0 1.27-.327 1.598-1.59 1.598H.638c-.135.008-.24.116-.244.25H.394v3.593c-.001.145.113.26.252.26h4.356v14.857c0 3.71 2.054 5.837 5.635 5.837l5.136-.001c.14 0 .254-.114.254-.255l.001-.001-.002-3.6c-.003-.14-.115-.25-.254-.25l-4.396.001L7.94 29.45l1.666-3.552.025-14.95h6.145c.14 0 .255-.114.255-.256v-3.59" mask="url(#D)" class="B D"/></g><g class="B"><path d="M100.27 6.926c-3.67 0-6.198 2.137-8.07 4.183l1.336-3.94c.02-.056.01-.117-.023-.165s-.088-.077-.146-.078l-.001-.001h-4.243c-.14-.001-.255.114-.256.255l-.001.001.001 30.56c0 .142.113.257.255.257h4.11c.14 0 .253-.114.255-.255h.001v-7.632l-1.318-3.576c1.62 1.86 4.172 5.228 8.11 5.228 5.99 0 9.568-4.644 9.568-12.42s-3.583-12.42-9.568-12.42l-.006.001zm4.68 14.36c0 3.892-2.325 6.3-6.068 6.3-2.687 0-5.397-1.283-5.397-4.15v-8.198c0-2.868 2.703-4.15 5.397-4.15 3.743 0 6.068 2.42 6.068 6.318v3.872zm45.14-3.655l-1.353-.212-4.473-.68c-2.002-.27-3.198-1.264-3.198-2.654 0-1.283.686-2.17 2.102-2.712 1.053-.414 2.103-.414 3.03-.414 1.42 0 2.675.428 3.63 1.24.692.56 1.154 1.52 1.192 2.445l.01.255h.002c.006.136.116.245.25.245h4.567c.14-.001.253-.115.253-.257l.001-.004v-.253c0-1.774-.568-3.222-1.836-4.69-1.64-1.96-4.505-3.033-8.07-3.033-3.146 0-6.138 1.006-7.804 2.622-1.176 1.108-1.878 2.91-1.878 4.825 0 3.524 2.58 5.885 7.067 6.473l5.03.797c2.43.308 3.513 1.152 3.513 2.74 0 .897-.314 1.665-.847 2.062-1.257.996-3.48 1.137-4.7 1.137-1.7 0-3.183-.342-4.04-.938-1.11-.785-1.695-1.84-1.734-3.136l-.008-.248c0-.14-.113-.256-.254-.256h-4.568c-.143 0-.256.115-.256.256v.264c0 2.072.943 4.162 2.504 5.592 1.944 1.788 4.692 2.695 8.172 2.695 3.593 0 6.566-.96 8.373-2.707 1.27-1.246 1.916-2.927 1.916-4.996 0-3.398-2.462-5.813-6.586-6.46" class="D"/><g class="C"><path d="M181.026 27.296l3.103-.01c.652-.027 1.117-.575 1.124-1.195.006-.6-.44-1.18-1.03-1.204l-3.197-.012-.001 2.422zM181 28.383l.001 2.453c.003.438.004.914-.6.933s-.63-.44-.63-.89l-.004-6.307c-.005-.614.252-.883.893-.868l3.203.015c1.965.07 3.112 1.492 2.45 3.132-.233.58-.83 1.023-1.357 1.643l1.124 2.265c.25.52.1.988-.344.98-.248-.004-.594-.22-.72-.43l-1.28-2.482c-.126-.212-.456-.404-.7-.428-.647-.06-1.304-.02-2.032-.02H181zm19.02-.668c.006-1.76-1.202-3.04-2.886-3.05-1.706-.01-2.903 1.225-2.913 3.01-.01 1.8 1.146 3.054 2.837 3.07 1.74.018 2.96-1.228 2.968-3.026m-2.903 4.115c-2.388.01-4.203-1.793-4.18-4.147.023-2.338 1.805-4.096 4.158-4.102 2.4-.006 4.16 1.752 4.15 4.15-.006 2.364-1.747 4.1-4.13 4.098"/><path d="M171.448 28.648c-.593 0-1.162.047-1.716-.022-.252-.03-.605-.263-.66-.467-.103-.397.233-.585.63-.6h2.315c.46.008.706.244.694.712l-.02 1.8a1.23 1.23 0 0 1-.375.722c-1.416 1.302-4.14 1.388-5.674.203-1.59-1.23-2.018-3.665-.965-5.482.965-1.666 3.216-2.403 5.165-1.66.39.15.784.38 1.072.676.168.17.126.534.18.81-.284.02-.595.12-.85.04-.51-.158-.97-.528-1.482-.606-1.936-.3-3.394.99-3.425 2.928-.034 2.116 1.668 3.468 3.797 3.01 1.296-.276 1.453-.508 1.304-2.065m52.258-3.772v2.438l2.946-.01c.64-.027 1.03-.518 1.037-1.17.01-.684-.39-1.22-1.036-1.247l-2.948-.01m-.044 3.6l-.001 2.492c-.002.433-.098.834-.652.814-.514-.018-.567-.4-.572-.81l-.004-6.43c-.004-.6.252-.848.854-.825l3.728.136c1.28.158 1.906 1.013 1.903 2.263s-.635 2.002-1.934 2.246a7.22 7.22 0 0 1-1.146.107l-2.175.004"/><path d="M208.168 26.56l-.001-1.857c-.002-.465-.085-1.037.595-1.058.706-.022.618.556.618 1.018v3.78c.008 1.764 1.343 2.7 3.068 2.18.906-.278 1.383-.958 1.387-2.036l.003-4.046c-.001-.442.02-.92.617-.903.552.014.65.446.637.913l-.145 4.76c-.228 1.834-1.73 2.684-3.97 2.48-1.623-.147-2.775-1.388-2.81-3.044l-.003-2.188"/></g></g></g></svg>
