<?xml version="1.0" encoding="utf-8"?><svg xmlns="http://www.w3.org/2000/svg" viewBox="0 0 72 40" xmlns:v="https://vecta.io/nano"><path d="M71.318 26.256h-7.1a.4.4 0 0 0-.378.287c-.38 1.527-1.077 2.78-2.13 3.812-1.335 1.24-3.367 2.197-6.706 1.9-4.192-.386-6.028-2.806-8.208-5.686-2.108-2.785-4.732-5.684-9.857-5.684s-7.787 3.477-9.923 6.272c-2.204 2.883-4.063 5.65-9.676 5.6-6.24-.064-9.68-3.762-9.68-10.544v-5.348c0-6.782 3.44-10.48 9.68-10.545 5.613-.058 7.472 2.708 9.676 5.6 2.136 2.794 4.794 6.27 9.923 6.27s7.75-2.898 9.857-5.682c2.18-2.88 4.016-5.3 8.208-5.687 3.34-.308 5.37.65 6.706 1.9 1.053 1.032 1.75 2.284 2.12 3.8.06.176.207.298.388.298h7.1a.4.4 0 0 0 .403-.401c0-.018-.007-.034-.01-.05a14.32 14.32 0 0 0-4.408-8.418c-2.854-2.714-6.584-4.297-12.155-4-7.598.372-10.986 4.82-13.48 8.115-2.036 2.7-2.972 3.707-4.738 3.707-1.787 0-2.742-1.03-4.822-3.75C29.493 4.6 25.91-.086 17.713-.086l-.475.003C6.786-.04.033 7.566 0 19.322v.392C.033 31.47 6.786 39.077 17.237 39.15l.475.003c8.198 0 11.78-4.686 14.395-8.1 2.08-2.722 3.035-3.75 4.822-3.75 1.766 0 2.702 1.017 4.738 3.707 2.494 3.294 5.882 7.743 13.48 8.114 5.57.3 9.3-1.275 12.155-4 2.435-2.312 3.908-5.138 4.413-8.403-.002-.03.005-.046.005-.064 0-.222-.18-.402-.402-.402m27.745-6.7c0 12.124 6.706 19.657 17.5 19.657s17.5-7.533 17.5-19.657-6.706-19.657-17.5-19.657-17.5 7.53-17.5 19.657h0zm27.295 2.58c0 6.847-3.48 10.617-9.795 10.617s-9.796-3.77-9.796-10.617v-5.16c0-6.847 3.48-10.617 9.796-10.617s9.795 3.77 9.795 10.617v5.16zM208.726.293c0-.224-.183-.406-.406-.406l-6.534.001c-.227-.001-.4.18-.4.405l.001 26.238c0 4.202-4.17 6.082-8.3 6.082-5.297 0-7.872-2.926-7.872-8.943L185.214.293c0-.224-.18-.406-.405-.406l-6.54.001c-.222.003-.4.18-.402.403v24.355c0 8.985 5.204 14.565 13.58 14.565 6.184 0 9.473-3.745 11.793-6.575l-1.918 6.198c-.01.03-.02.06-.02.094a.29.29 0 0 0 .3.292h6.736c.222 0 .404-.18.405-.404L208.74.3" fill="#383c45"/></svg>